<svg width="741" height="717" viewBox="0 0 741 717" fill="none" xmlns="http://www.w3.org/2000/svg">
<g clip-path="url(#clip0_149_241)">
<path d="M1033 -504H-263V792H1033V-504Z" fill="white"/>
<path d="M1033 -504H-263V792H1033V-504Z" fill="white"/>
<path d="M1033 -504H-263V792H1033V-504Z" fill="white"/>
<path d="M261.881 37.6487H246.402L254.142 15.8674L261.881 37.6487ZM284.746 61.0497L259.902 -0.148193H248.475L223.631 61.0497H238.121L242.532 48.7216H265.845L270.251 61.0497H284.746Z" fill="#009999"/>
<path d="M308.594 61.0497H344.053V48.8101H322.094V-0.148193H308.594V61.0497Z" fill="#009999"/>
<path d="M384.104 39.1799H393.552C403.453 39.1799 412.271 31.8883 412.271 19.4716C412.271 7.86222 403.453 -0.148193 393.552 -0.148193H370.604V61.0497H384.104V39.1799ZM391.302 10.4716C395.265 10.4716 399.401 13.8883 399.401 19.4716C399.401 25.3206 395.265 28.5601 391.302 28.5601H384.104V10.4716H391.302Z" fill="#009999"/>
<path d="M470.685 -0.148193V24.2372H450.524V-0.148193H437.024V61.0497H450.524V36.482H470.685V61.0497H485.081V-0.148193H470.685Z" fill="#009999"/>
<path d="M547.181 37.6487H531.702L539.441 15.8674L547.181 37.6487ZM570.045 61.0497L545.202 -0.148193H533.775L508.931 61.0497H523.42L527.832 48.7216H551.144L555.551 61.0497H570.045Z" fill="#009999"/>
<path d="M38.2051 145.549H22.7259L30.4655 123.768L38.2051 145.549ZM61.0697 168.95L36.2259 107.752H24.7988L-0.0449219 168.95H14.4447L18.8561 156.622H42.1686L46.5749 168.95H61.0697Z" fill="#009999"/>
<path d="M120.647 107.752V143.122C120.647 151.581 118.126 156.351 108.856 156.351C99.6785 156.351 97.0691 151.581 97.0691 143.122V107.752H83.5691V145.101C83.5691 161.388 92.9285 169.851 108.856 169.851C124.788 169.851 134.147 161.388 134.147 145.101V107.752H120.647Z" fill="#009999"/>
<path d="M187.609 119.992H205.067V107.752H156.645V119.992H174.109V168.95H187.609V119.992Z" fill="#009999"/>
<path d="M276.168 138.263C276.168 147.711 267.616 156.351 258.168 156.351C248.715 156.351 240.168 147.711 240.168 138.263C240.168 128.81 248.715 120.263 258.168 120.263C267.616 120.263 276.168 128.81 276.168 138.263ZM289.668 138.351C289.668 121.429 275.085 106.851 258.168 106.851C241.246 106.851 226.668 121.429 226.668 138.351C226.668 155.268 241.246 169.851 258.168 169.851C275.085 169.851 289.668 155.268 289.668 138.351Z" fill="#009999"/>
<path d="M392.536 168.95L380.656 107.752H364.635L351.947 150.68L339.166 107.752H323.145L311.265 168.95H326.119L333.317 126.742L345.286 168.95H358.515L370.489 126.742L377.687 168.95H392.536Z" fill="#009999"/>
<path d="M449.685 145.549H434.206L441.945 123.768L449.685 145.549ZM472.549 168.95L447.706 107.752H436.279L411.435 168.95H425.924L430.336 156.622H453.648L458.055 168.95H472.549Z" fill="#009999"/>
<path d="M522.408 119.992H539.867V107.752H491.445V119.992H508.908V168.95H522.408V119.992Z" fill="#009999"/>
<path d="M577.218 168.95V107.752H563.718V168.95H577.218Z" fill="#009999"/>
<path d="M653.268 138.263C653.268 147.711 644.716 156.351 635.268 156.351C625.815 156.351 617.268 147.711 617.268 138.263C617.268 128.81 625.815 120.263 635.268 120.263C644.716 120.263 653.268 128.81 653.268 138.263ZM666.768 138.351C666.768 121.429 652.184 106.851 635.268 106.851C618.346 106.851 603.768 121.429 603.768 138.351C603.768 155.268 618.346 169.851 635.268 169.851C652.184 169.851 666.768 155.268 666.768 138.351Z" fill="#009999"/>
<path d="M741.375 168.95V107.752H727.875V145.909L706.818 107.752H693.318V168.95H706.818V130.789L727.875 168.95H741.375Z" fill="#009999"/>
<path fill-rule="evenodd" clip-rule="evenodd" d="M264.601 57.3992L256.861 35.7377L260.67 34.377L268.409 56.0385L264.601 57.3992Z" fill="white"/>
<path fill-rule="evenodd" clip-rule="evenodd" d="M40.0999 162.845L31.6103 139.319L35.4001 137.952L43.8897 161.478L40.0999 162.845Z" fill="white"/>
<path fill-rule="evenodd" clip-rule="evenodd" d="M453.782 168.845L445.292 145.319L449.082 143.952L457.572 167.478L453.782 168.845Z" fill="white"/>
<path fill-rule="evenodd" clip-rule="evenodd" d="M550.033 57.6743L541.981 35.0598L545.769 33.711L553.821 56.3256L550.033 57.6743Z" fill="white"/>
<path d="M275.245 239.45C281.183 239.45 287.308 241.883 290.277 248.362H305.126C300.896 235.669 288.745 226.851 275.245 226.851C257.964 226.851 243.745 241.07 243.745 258.351C243.745 275.633 257.964 289.851 275.245 289.851C292.704 289.851 306.657 275.721 306.657 258.351V256.278H276.506V266.45H292.073C288.745 275.721 281.183 277.612 275.245 277.612C265.527 277.612 257.428 268.883 257.428 258.528C257.428 248.179 265.527 239.45 275.245 239.45Z" fill="#009999"/>
<path d="M409.524 288.95L397.644 227.752H381.623L368.935 270.679L356.154 227.752H340.133L328.253 288.95H343.107L350.305 246.742L362.274 288.95H375.503L387.477 246.742L394.675 288.95H409.524Z" fill="#009999"/>
<path d="M462.897 271.039C462.897 275.091 459.475 278.419 455.423 278.419H446.876V263.658H455.423C459.475 263.658 462.897 267.08 462.897 271.039ZM458.663 245.481C458.663 249.351 455.423 252.591 451.553 252.591H446.876V238.372H451.553C455.423 238.372 458.663 241.518 458.663 245.481ZM476.663 271.398C476.663 263.122 471.085 257.632 464.246 256.013C468.835 253.94 471.538 249.263 471.538 243.049C471.538 234.679 464.876 227.752 454.434 227.752H433.376V288.95H458.126C469.824 288.95 476.663 281.929 476.663 271.398Z" fill="#009999"/>
<path d="M534.628 227.752V252.138H514.466V227.752H500.966V288.95H514.466V264.382H534.628V288.95H549.023V227.752H534.628Z" fill="#009999"/>
</g>
<g clip-path="url(#clip1_149_241)">
<path d="M1018 -84H-278V1212H1018V-84Z" fill="white"/>
<path d="M1018 -84H-278V1212H1018V-84Z" fill="white"/>
<path d="M1018 -84H-278V1212H1018V-84Z" fill="white"/>
<mask id="mask0_149_241" style="mask-type:luminance" maskUnits="userSpaceOnUse" x="220" y="580" width="70" height="76">
<path d="M220.12 580.464H290V655.682H220.12V580.464Z" fill="white"/>
</mask>
<g mask="url(#mask0_149_241)">
<mask id="mask1_149_241" style="mask-type:luminance" maskUnits="userSpaceOnUse" x="220" y="580" width="70" height="76">
<path d="M257.771 598.875C268.073 602.573 263.875 605.974 263.375 605.677C262.875 605.375 264.172 601.177 264.974 599.177C265.771 597.276 266.771 595.875 268.271 593.875C270.573 590.776 275.573 584.776 277.974 582.776C279.073 581.776 279.672 581.276 280.771 580.974C282.073 580.573 284.271 580.573 285.573 580.974C286.672 581.276 287.573 581.974 288.271 582.875C289.073 583.974 289.771 586.073 289.875 587.474C289.974 588.677 289.474 589.875 289.073 590.677C288.771 591.276 288.672 591.573 288.073 591.974C286.875 592.776 282.974 592.375 281.271 593.776C279.375 595.375 279.672 598.276 277.573 601.375C273.474 607.474 259.172 620.677 255.073 626.073C253.271 628.474 253.271 629.474 251.573 631.677C248.573 635.474 241.375 641.776 237.875 645.974C235.375 648.974 234.073 652.474 231.974 653.974C230.573 655.073 229.073 655.573 227.573 655.573C226.073 655.573 224.271 654.776 223.172 654.177C222.375 653.776 221.974 653.375 221.474 652.573C220.875 651.474 220.271 649.375 220.172 648.073C220.172 647.177 220.172 646.573 220.573 645.776C221.073 644.677 222.073 642.875 223.474 642.177C225.172 641.276 228.474 640.974 230.271 641.573C231.771 642.073 233.073 643.677 233.771 644.677C234.271 645.375 234.573 645.974 234.573 646.875C234.573 648.474 233.474 652.073 232.573 653.375C232.073 654.177 231.474 654.474 230.672 654.776C229.474 655.276 227.474 655.677 226.073 655.375C224.573 655.073 222.875 654.073 221.974 653.177C221.375 652.573 221.073 651.875 220.771 651.177C220.474 650.474 220.172 649.776 220.172 648.875C220.172 647.677 220.271 646.276 221.271 644.375C223.672 639.875 234.573 630.474 239.573 624.474C243.375 619.875 246.172 614.573 248.974 611.573C250.771 609.677 252.771 609.177 254.073 607.573C255.375 606.073 255.474 604.177 256.974 602.276C259.271 599.375 264.771 595.375 267.375 592.474C269.172 590.474 269.875 588.573 271.474 586.875C273.172 585.177 275.172 583.474 277.271 582.375C279.375 581.375 282.172 580.474 283.974 580.573C285.172 580.677 286.172 581.177 287.073 581.776C287.974 582.375 288.771 583.177 289.172 584.276C289.771 585.875 289.974 588.375 289.073 590.677C287.573 594.375 279.172 599.073 277.271 602.677C276.073 604.776 276.875 606.776 275.974 608.573C275.073 610.474 273.771 612.875 271.875 613.776C269.875 614.776 266.875 614.073 263.974 613.573C260.172 612.875 253.573 610.974 251.375 608.974C250.172 607.776 249.771 606.375 249.672 604.974C249.573 603.677 250.271 601.875 250.974 600.875C251.573 600.073 252.375 599.474 253.375 599.073C254.573 598.677 257.771 598.875 257.771 598.875Z" fill="white"/>
</mask>
<g mask="url(#mask1_149_241)">
<path d="M216.172 576.573H293.875V659.573H216.172V576.573Z" fill="#009999"/>
</g>
</g>
<mask id="mask2_149_241" style="mask-type:luminance" maskUnits="userSpaceOnUse" x="116" y="302" width="480" height="416">
<path d="M116.667 302.667H595.333V717.333H116.667V302.667Z" fill="white"/>
</mask>
<g mask="url(#mask2_149_241)">
<mask id="mask3_149_241" style="mask-type:luminance" maskUnits="userSpaceOnUse" x="117" y="303" width="597" height="619">
<path d="M713.761 511.495L476.589 921.729L117.63 714.203L354.802 303.969L713.761 511.495Z" fill="white"/>
</mask>
<g mask="url(#mask3_149_241)">
<mask id="mask4_149_241" style="mask-type:luminance" maskUnits="userSpaceOnUse" x="117" y="303" width="479" height="414">
<path d="M595.177 716.609L117.63 714.203L354.802 303.969L595.177 716.609Z" fill="white"/>
</mask>
<g mask="url(#mask4_149_241)">
<path d="M713.761 511.495L476.589 921.729L117.63 714.203L354.802 303.969L713.761 511.495Z" fill="#009999"/>
</g>
</g>
</g>
<path fill-rule="evenodd" clip-rule="evenodd" d="M260.6 569.036L151.605 760.145L95.1139 727.927L204.109 536.818L260.6 569.036Z" fill="white"/>
<mask id="mask5_149_241" style="mask-type:luminance" maskUnits="userSpaceOnUse" x="224" y="428" width="262" height="226">
<path d="M224.667 428H486V653.333H224.667V428Z" fill="white"/>
</mask>
<g mask="url(#mask5_149_241)">
<mask id="mask6_149_241" style="mask-type:luminance" maskUnits="userSpaceOnUse" x="225" y="428" width="326" height="338">
<path d="M550.151 541.365L420.839 765.036L225.125 651.885L354.438 428.219L550.151 541.365Z" fill="white"/>
</mask>
<g mask="url(#mask6_149_241)">
<mask id="mask7_149_241" style="mask-type:luminance" maskUnits="userSpaceOnUse" x="225" y="428" width="261" height="226">
<path d="M485.495 653.198L225.125 651.885L354.438 428.219L485.495 653.198Z" fill="white"/>
</mask>
<g mask="url(#mask7_149_241)">
<path d="M550.151 541.365L420.839 765.036L225.125 651.885L354.438 428.219L550.151 541.365Z" fill="white"/>
</g>
</g>
</g>
<path fill-rule="evenodd" clip-rule="evenodd" d="M236.917 521.038H329.922V571.004H236.917V521.038Z" fill="#009999"/>
<mask id="mask8_149_241" style="mask-type:luminance" maskUnits="userSpaceOnUse" x="200" y="511" width="69" height="61">
<path d="M200.531 511.786H268.208V571.005H200.531V511.786Z" fill="white"/>
</mask>
<g mask="url(#mask8_149_241)">
<mask id="mask9_149_241" style="mask-type:luminance" maskUnits="userSpaceOnUse" x="200" y="511" width="69" height="61">
<path d="M234.37 511.786L200.531 571.005H268.208L234.37 511.786Z" fill="white"/>
</mask>
<g mask="url(#mask9_149_241)">
<path d="M268.208 571.005H200.531V511.786H268.208V571.005Z" fill="#009999"/>
</g>
</g>
<path fill-rule="evenodd" clip-rule="evenodd" d="M214.22 739.224L173.329 716.036L186.608 692.62L227.499 715.807L214.22 739.224Z" fill="white"/>
<path fill-rule="evenodd" clip-rule="evenodd" d="M223.432 591.896L215.432 710.63L178.474 708.14L186.474 589.406L223.432 591.896Z" fill="white"/>
<path fill-rule="evenodd" clip-rule="evenodd" d="M260.654 516.968L187.013 714.713L183.268 713.318L256.909 515.573L260.654 516.968Z" fill="#009999"/>
<path fill-rule="evenodd" clip-rule="evenodd" d="M348.062 524.069H252.052V520.066H348.062V524.069Z" fill="#009999"/>
<path fill-rule="evenodd" clip-rule="evenodd" d="M413.421 538.256L356.129 617.772L304.933 580.885L362.225 501.369L413.421 538.256Z" fill="white"/>
<path fill-rule="evenodd" clip-rule="evenodd" d="M349.439 522.603L184.788 716.009L181.743 713.418L346.395 520.012L349.439 522.603Z" fill="#009999"/>
<path fill-rule="evenodd" clip-rule="evenodd" d="M251.434 690.183L225.439 732.897L222.03 730.822L248.025 688.109L251.434 690.183Z" fill="white"/>
<path fill-rule="evenodd" clip-rule="evenodd" d="M234.658 678.007L229.966 714.716L226.024 714.212L230.716 677.503L234.658 678.007Z" fill="white"/>
<mask id="mask10_149_241" style="mask-type:luminance" maskUnits="userSpaceOnUse" x="191" y="696" width="5" height="5">
<path d="M191.745 696.74H195.688V700.88H191.745V696.74Z" fill="white"/>
</mask>
<g mask="url(#mask10_149_241)">
<mask id="mask11_149_241" style="mask-type:luminance" maskUnits="userSpaceOnUse" x="191" y="697" width="5" height="4">
<path d="M195.672 698.177C193.974 700.875 192.375 700.375 192.073 699.776C191.771 699.177 192.073 697.573 192.573 697.177C193.073 696.776 195.172 697.276 195.172 697.276" fill="white"/>
</mask>
<g mask="url(#mask11_149_241)">
<path d="M188.073 693.177H199.672V704.573H188.073V693.177Z" fill="#009999"/>
</g>
</g>
<mask id="mask12_149_241" style="mask-type:luminance" maskUnits="userSpaceOnUse" x="190" y="698" width="5" height="5">
<path d="M190.245 698.667H194.188V702.578H190.245V698.667Z" fill="white"/>
</mask>
<g mask="url(#mask12_149_241)">
<mask id="mask13_149_241" style="mask-type:luminance" maskUnits="userSpaceOnUse" x="190" y="698" width="5" height="4">
<path d="M194.172 699.776C192.573 702.573 190.875 702.073 190.573 701.474C190.271 700.875 190.573 699.276 191.073 698.875C191.573 698.474 193.771 698.974 193.771 698.974" fill="white"/>
</mask>
<g mask="url(#mask13_149_241)">
<path d="M186.573 694.875H198.172V706.276H186.573V694.875Z" fill="#009999"/>
</g>
</g>
<mask id="mask14_149_241" style="mask-type:luminance" maskUnits="userSpaceOnUse" x="238" y="551" width="50" height="52">
<path d="M238.245 551.63H287.333V602.588H238.245V551.63Z" fill="white"/>
</mask>
<g mask="url(#mask14_149_241)">
<mask id="mask15_149_241" style="mask-type:luminance" maskUnits="userSpaceOnUse" x="238" y="551" width="50" height="52">
<path d="M284.875 579.276C265.875 601.073 255.771 601.375 250.271 598.974C245.375 596.875 241.172 590.276 239.474 586.073C238.271 582.974 238.271 579.974 238.771 577.073C239.271 574.177 240.573 571.177 242.375 568.875C244.172 566.573 247.271 564.474 249.375 563.276C250.875 562.474 251.974 562.073 253.672 561.875C256.073 561.573 260.271 561.677 262.672 562.276C264.375 562.677 265.375 563.073 266.771 564.073C268.771 565.474 271.875 568.375 273.271 570.375C274.271 571.776 274.771 572.776 275.172 574.474C275.771 576.875 276.073 580.974 275.974 583.677C275.875 585.875 275.573 587.776 274.974 589.677C274.375 591.573 273.375 593.474 272.172 595.073C270.974 596.677 269.474 598.177 267.771 599.276C266.172 600.375 264.172 601.276 262.271 601.776C260.375 602.276 258.172 602.573 256.172 602.474C254.172 602.375 252.073 601.875 250.271 601.177C248.375 600.375 246.573 599.276 245.073 597.974C243.573 596.677 242.172 595.073 241.172 593.375C240.172 591.677 239.271 589.677 238.875 587.776C238.474 585.776 238.375 583.677 238.573 581.677C238.771 579.677 239.375 577.573 240.172 575.776C240.974 573.974 242.172 572.177 243.573 570.776C244.974 569.276 246.672 567.974 248.474 567.073C250.271 566.177 252.172 565.474 254.172 565.177C256.172 564.875 258.271 564.875 260.271 565.177C262.271 565.474 264.172 566.276 265.974 567.177C267.771 568.073 269.474 569.375 270.875 570.776C272.271 572.276 273.474 574.073 274.271 575.875C275.073 577.677 275.672 579.677 275.875 581.677C276.073 583.677 275.974 585.776 275.573 587.776C275.172 589.677 274.271 591.677 273.271 593.375C272.271 595.073 270.875 596.677 269.375 597.974C267.875 599.276 266.073 600.375 264.172 601.177C262.375 601.875 260.271 602.375 258.271 602.474C256.271 602.573 254.073 602.276 252.172 601.776C250.271 601.276 248.271 600.375 246.672 599.276C244.974 598.177 243.474 596.677 242.271 595.073C241.073 593.474 240.073 591.573 239.474 589.677C238.875 587.776 238.271 583.776 238.474 583.677C238.573 583.677 239.271 586.073 239.474 586.073C239.771 585.974 238.271 579.974 238.771 577.073C239.271 574.177 240.573 571.177 242.375 568.875C244.172 566.573 247.271 564.474 249.375 563.276C250.875 562.474 251.974 562.073 253.672 561.875C256.073 561.573 260.271 561.677 262.672 562.276C264.375 562.677 265.375 563.073 266.771 564.073C268.771 565.474 271.875 568.375 273.271 570.375C274.271 571.776 275.172 574.474 275.172 574.474C275.172 574.474 275.073 572.974 274.271 572.276C271.672 569.875 252.172 568.375 250.974 564.875C250.271 562.776 254.375 559.375 255.974 557.573C257.172 556.276 257.875 555.573 259.375 554.776C261.474 553.573 265.271 552.276 267.672 551.974C269.375 551.776 270.474 551.776 272.073 552.177C274.375 552.677 277.875 553.875 280.073 555.573C282.375 557.276 284.375 559.776 285.573 562.375C286.771 564.875 287.375 568.073 287.271 570.875C287.172 573.677 284.875 579.276 284.875 579.276Z" fill="white"/>
</mask>
<g mask="url(#mask15_149_241)">
<path d="M234.474 547.974H291.271V606.474H234.474V547.974Z" fill="#009999"/>
</g>
</g>
<mask id="mask16_149_241" style="mask-type:luminance" maskUnits="userSpaceOnUse" x="223" y="596" width="37" height="38">
<path d="M223.526 596.583H259.037V633.026H223.526V596.583Z" fill="white"/>
</mask>
<g mask="url(#mask16_149_241)">
<mask id="mask17_149_241" style="mask-type:luminance" maskUnits="userSpaceOnUse" x="223" y="596" width="36" height="37">
<path d="M258.875 609.474C258.974 620.875 257.573 623.776 255.875 625.974C254.172 628.177 251.573 630.177 249.073 631.276C246.573 632.375 243.474 632.974 240.672 632.776C237.875 632.573 234.771 631.677 232.375 630.276C229.974 628.875 227.672 626.573 226.271 624.177C224.875 621.776 223.974 618.776 223.771 615.974C223.573 613.177 224.172 610.073 225.271 607.474C226.375 604.974 228.375 602.375 230.573 600.677C232.771 598.974 235.672 597.677 238.474 597.177C241.172 596.677 244.375 596.875 247.073 597.677C249.771 598.474 254.474 602.073 254.474 602.073" fill="white"/>
</mask>
<g mask="url(#mask17_149_241)">
<path d="M219.771 593.177H263.474V636.776H219.771V593.177Z" fill="#009999"/>
</g>
</g>
<mask id="mask18_149_241" style="mask-type:luminance" maskUnits="userSpaceOnUse" x="250" y="565" width="36" height="38">
<path d="M250.219 565.891H285.646V602.417H250.219V565.891Z" fill="white"/>
</mask>
<g mask="url(#mask18_149_241)">
<mask id="mask19_149_241" style="mask-type:luminance" maskUnits="userSpaceOnUse" x="250" y="566" width="36" height="37">
<path d="M285.573 578.875C285.573 590.177 284.271 593.073 282.573 595.276C280.875 597.474 278.271 599.375 275.771 600.573C273.172 601.776 270.073 602.375 267.271 602.177C264.474 601.974 261.474 600.974 259.073 599.573C256.672 598.073 254.375 595.875 252.974 593.474C251.573 591.073 250.672 588.073 250.474 585.276C250.271 582.474 250.875 579.276 251.974 576.776C253.073 574.276 255.073 571.776 257.271 570.073C259.474 568.375 262.375 566.974 265.172 566.474C267.875 565.974 271.073 566.177 273.771 566.974C276.474 567.776 281.172 571.474 281.172 571.474" fill="white"/>
</mask>
<g mask="url(#mask19_149_241)">
<path d="M246.474 562.474H290.073V606.177H246.474V562.474Z" fill="#009999"/>
</g>
</g>
<mask id="mask20_149_241" style="mask-type:luminance" maskUnits="userSpaceOnUse" x="266" y="552" width="38" height="38">
<path d="M266.865 552.656H303.333V589.094H266.865V552.656Z" fill="white"/>
</mask>
<g mask="url(#mask20_149_241)">
<mask id="mask21_149_241" style="mask-type:luminance" maskUnits="userSpaceOnUse" x="267" y="552" width="37" height="37">
<path d="M285.172 552.875C292.771 554.375 294.573 555.375 296.073 556.573C297.573 557.776 298.974 559.177 300.073 560.776C301.172 562.375 302.073 564.177 302.573 566.073C303.073 567.875 303.271 569.974 303.172 571.875C303.073 573.776 302.573 575.776 301.875 577.573C301.172 579.375 300.073 581.073 298.875 582.573C297.672 583.974 296.073 585.276 294.474 586.276C292.875 587.276 290.974 588.073 289.073 588.474C287.172 588.875 285.172 588.974 283.271 588.776C281.375 588.573 279.375 587.974 277.672 587.177C275.875 586.375 274.172 585.276 272.771 583.974C271.375 582.677 270.172 580.974 269.271 579.276C268.375 577.573 267.672 575.677 267.375 573.776C267.073 571.875 267.073 569.875 267.375 567.974C267.672 566.073 268.375 564.177 269.271 562.474C270.172 560.776 271.375 559.073 272.771 557.776C274.172 556.474 275.875 555.276 277.672 554.474C279.375 553.677 281.375 553.177 283.271 552.974C285.172 552.776 287.172 552.875 289.073 553.276C290.974 553.677 292.875 554.474 294.474 555.474C296.073 556.474 297.672 557.776 298.875 559.177C300.073 560.677 301.172 562.375 301.875 564.177C302.573 565.974 303.073 567.974 303.172 569.875C303.271 571.776 303.073 573.875 302.573 575.677C302.073 577.573 301.172 579.375 300.073 580.974C298.974 582.573 297.573 583.974 296.073 585.177C294.573 586.375 292.771 587.375 290.974 587.974C289.172 588.573 287.271 588.974 285.172 588.875C282.573 588.776 279.271 588.177 276.771 586.875C274.271 585.573 271.771 583.073 270.271 581.276C269.271 579.974 268.672 579.073 268.172 577.474C267.474 575.276 266.974 571.177 267.073 568.875C267.172 567.177 267.375 566.177 268.073 564.677C268.974 562.474 271.172 559.177 272.875 557.474C274.073 556.276 274.974 555.677 276.474 554.974C278.573 553.974 284.771 552.875 284.771 552.875" fill="white"/>
</mask>
<g mask="url(#mask21_149_241)">
<path d="M263.073 548.875H307.172V592.875H263.073V548.875Z" fill="#009999"/>
</g>
</g>
<mask id="mask22_149_241" style="mask-type:luminance" maskUnits="userSpaceOnUse" x="235" y="576" width="13" height="14">
<path d="M235.646 576.76H247.5V589.042H235.646V576.76Z" fill="white"/>
</mask>
<g mask="url(#mask22_149_241)">
<mask id="mask23_149_241" style="mask-type:luminance" maskUnits="userSpaceOnUse" x="235" y="576" width="13" height="13">
<path d="M247.474 580.974C245.974 587.375 245.073 587.875 244.172 588.276C243.375 588.677 242.375 588.974 241.375 588.776C239.974 588.474 237.474 587.276 236.573 585.875C235.672 584.474 235.875 581.677 236.271 580.276C236.573 579.276 237.271 578.677 237.974 578.073C238.672 577.474 239.573 576.974 240.672 576.875C242.172 576.776 245.974 578.474 245.974 578.474" fill="white"/>
</mask>
<g mask="url(#mask23_149_241)">
<path d="M232.271 572.875H251.474V592.776H232.271V572.875Z" fill="#009999"/>
</g>
</g>
<mask id="mask24_149_241" style="mask-type:luminance" maskUnits="userSpaceOnUse" x="238" y="568" width="12" height="12">
<path d="M238 568.042H249.604V580H238V568.042Z" fill="white"/>
</mask>
<g mask="url(#mask24_149_241)">
<mask id="mask25_149_241" style="mask-type:luminance" maskUnits="userSpaceOnUse" x="238" y="568" width="12" height="12">
<path d="M249.573 572.375C249.375 576.573 247.875 578.875 246.375 579.573C244.875 580.276 242.073 579.875 240.771 579.276C239.875 578.875 239.172 578.177 238.771 577.177C238.172 575.875 237.974 573.073 238.375 571.677C238.672 570.677 239.474 569.974 240.172 569.375C240.875 568.776 241.771 568.276 242.771 568.177C244.271 568.073 248.172 569.875 248.172 569.875" fill="white"/>
</mask>
<g mask="url(#mask25_149_241)">
<path d="M234.375 564.177H253.771V583.573H234.375V564.177Z" fill="#009999"/>
</g>
</g>
<path fill-rule="evenodd" clip-rule="evenodd" d="M332.527 523.178L195.215 700.168L192.056 697.717L329.369 520.728L332.527 523.178Z" fill="#009999"/>
<path fill-rule="evenodd" clip-rule="evenodd" d="M383.394 526.512L213.368 747.73L178.506 720.936L348.533 499.717L383.394 526.512Z" fill="white"/>
<mask id="mask26_149_241" style="mask-type:luminance" maskUnits="userSpaceOnUse" x="169" y="681" width="27" height="35">
<path d="M169.958 681.526H195.271V715.99H169.958V681.526Z" fill="white"/>
</mask>
<g mask="url(#mask26_149_241)">
<mask id="mask27_149_241" style="mask-type:luminance" maskUnits="userSpaceOnUse" x="169" y="681" width="27" height="35">
<path d="M182.615 715.99L195.271 681.526H169.958L182.615 715.99Z" fill="white"/>
</mask>
<g mask="url(#mask27_149_241)">
<path d="M169.958 681.526H195.271V715.99H169.958V681.526Z" fill="white"/>
</g>
</g>
<mask id="mask28_149_241" style="mask-type:luminance" maskUnits="userSpaceOnUse" x="182" y="516" width="130" height="200">
<path d="M182 516H311.333V716H182V516Z" fill="white"/>
</mask>
<g mask="url(#mask28_149_241)">
<mask id="mask29_149_241" style="mask-type:luminance" maskUnits="userSpaceOnUse" x="158" y="516" width="153" height="214">
<path d="M262.672 516.599L310.771 543.594L206.703 729.036L158.599 702.042L262.672 516.599Z" fill="white"/>
</mask>
<g mask="url(#mask29_149_241)">
<mask id="mask30_149_241" style="mask-type:luminance" maskUnits="userSpaceOnUse" x="182" y="516" width="129" height="200">
<path d="M182.651 715.536L310.771 543.594L262.672 516.599L182.651 715.536Z" fill="white"/>
</mask>
<g mask="url(#mask30_149_241)">
<path d="M262.672 516.599L310.771 543.594L206.703 729.036L158.599 702.042L262.672 516.599Z" fill="#009999"/>
</g>
</g>
</g>
</g>
<defs>
<clipPath id="clip0_149_241">
<rect width="741" height="289" fill="white"/>
</clipPath>
<clipPath id="clip1_149_241">
<rect width="417" height="413" fill="white" transform="translate(178 304)"/>
</clipPath>
</defs>
</svg>
