<svg width="1232" height="413" viewBox="0 0 1232 413" fill="none" xmlns="http://www.w3.org/2000/svg">
<g clip-path="url(#clip0_149_241)">
<path d="M752.881 128.649H737.402L745.142 106.867L752.881 128.649ZM775.746 152.05L750.902 90.8518H739.475L714.631 152.05H729.121L733.532 139.722H756.845L761.251 152.05H775.746Z" fill="#009999"/>
<path d="M799.594 152.05H835.053V139.81H813.094V90.8518H799.594V152.05Z" fill="#009999"/>
<path d="M875.104 130.18H884.552C894.453 130.18 903.271 122.888 903.271 110.472C903.271 98.8622 894.453 90.8518 884.552 90.8518H861.604V152.05H875.104V130.18ZM882.302 101.472C886.265 101.472 890.401 104.888 890.401 110.472C890.401 116.321 886.265 119.56 882.302 119.56H875.104V101.472H882.302Z" fill="#009999"/>
<path d="M961.685 90.8518V115.237H941.524V90.8518H928.024V152.05H941.524V127.482H961.685V152.05H976.081V90.8518H961.685Z" fill="#009999"/>
<path d="M1038.18 128.649H1022.7L1030.44 106.867L1038.18 128.649ZM1061.05 152.05L1036.2 90.8518H1024.77L999.931 152.05H1014.42L1018.83 139.722H1042.14L1046.55 152.05H1061.05Z" fill="#009999"/>
<path d="M529.205 236.549H513.726L521.465 214.768L529.205 236.549ZM552.07 259.95L527.226 198.752H515.799L490.955 259.95H505.445L509.856 247.622H533.169L537.575 259.95H552.07Z" fill="#009999"/>
<path d="M611.647 198.752V234.122C611.647 242.581 609.126 247.351 599.856 247.351C590.678 247.351 588.069 242.581 588.069 234.122V198.752H574.569V236.101C574.569 252.388 583.928 260.851 599.856 260.851C615.788 260.851 625.147 252.388 625.147 236.101V198.752H611.647Z" fill="#009999"/>
<path d="M678.609 210.992H696.067V198.752H647.645V210.992H665.109V259.95H678.609V210.992Z" fill="#009999"/>
<path d="M767.168 229.263C767.168 238.711 758.616 247.351 749.168 247.351C739.715 247.351 731.168 238.711 731.168 229.263C731.168 219.81 739.715 211.263 749.168 211.263C758.616 211.263 767.168 219.81 767.168 229.263ZM780.668 229.351C780.668 212.429 766.085 197.851 749.168 197.851C732.246 197.851 717.668 212.429 717.668 229.351C717.668 246.268 732.246 260.851 749.168 260.851C766.085 260.851 780.668 246.268 780.668 229.351Z" fill="#009999"/>
<path d="M883.536 259.95L871.656 198.752H855.635L842.947 241.68L830.166 198.752H814.145L802.265 259.95H817.119L824.317 217.742L836.286 259.95H849.515L861.489 217.742L868.687 259.95H883.536Z" fill="#009999"/>
<path d="M940.685 236.549H925.206L932.945 214.768L940.685 236.549ZM963.549 259.95L938.706 198.752H927.279L902.435 259.95H916.924L921.336 247.622H944.648L949.055 259.95H963.549Z" fill="#009999"/>
<path d="M1013.41 210.992H1030.87V198.752H982.445V210.992H999.908V259.95H1013.41V210.992Z" fill="#009999"/>
<path d="M1068.22 259.95V198.752H1054.72V259.95H1068.22Z" fill="#009999"/>
<path d="M1144.27 229.263C1144.27 238.711 1135.72 247.351 1126.27 247.351C1116.81 247.351 1108.27 238.711 1108.27 229.263C1108.27 219.81 1116.81 211.263 1126.27 211.263C1135.72 211.263 1144.27 219.81 1144.27 229.263ZM1157.77 229.351C1157.77 212.429 1143.18 197.851 1126.27 197.851C1109.35 197.851 1094.77 212.429 1094.77 229.351C1094.77 246.268 1109.35 260.851 1126.27 260.851C1143.18 260.851 1157.77 246.268 1157.77 229.351Z" fill="#009999"/>
<path d="M1232.37 259.95V198.752H1218.87V236.909L1197.82 198.752H1184.32V259.95H1197.82V221.789L1218.87 259.95H1232.37Z" fill="#009999"/>
<path d="M766.245 330.45C772.183 330.45 778.308 332.883 781.277 339.362H796.126C791.896 326.669 779.745 317.851 766.245 317.851C748.964 317.851 734.745 332.07 734.745 349.351C734.745 366.633 748.964 380.851 766.245 380.851C783.704 380.851 797.657 366.721 797.657 349.351V347.278H767.506V357.45H783.073C779.745 366.721 772.183 368.612 766.245 368.612C756.527 368.612 748.428 359.883 748.428 349.528C748.428 339.179 756.527 330.45 766.245 330.45Z" fill="#009999"/>
<path d="M900.524 379.95L888.644 318.752H872.623L859.935 361.679L847.154 318.752H831.133L819.253 379.95H834.107L841.305 337.742L853.274 379.95H866.503L878.477 337.742L885.675 379.95H900.524Z" fill="#009999"/>
<path d="M953.897 362.039C953.897 366.091 950.475 369.419 946.423 369.419H937.876V354.658H946.423C950.475 354.658 953.897 358.08 953.897 362.039ZM949.663 336.481C949.663 340.351 946.423 343.591 942.553 343.591H937.876V329.372H942.553C946.423 329.372 949.663 332.518 949.663 336.481ZM967.663 362.398C967.663 354.122 962.085 348.632 955.246 347.013C959.835 344.94 962.538 340.263 962.538 334.049C962.538 325.679 955.876 318.752 945.434 318.752H924.376V379.95H949.126C960.824 379.95 967.663 372.929 967.663 362.398Z" fill="#009999"/>
<path d="M1025.63 318.752V343.138H1005.47V318.752H991.966V379.95H1005.47V355.382H1025.63V379.95H1040.02V318.752H1025.63Z" fill="#009999"/>
</g>
<g clip-path="url(#clip1_149_241)">
<path d="M840 -388H-456V908H840V-388Z" fill="white"/>
<path d="M840 -388H-456V908H840V-388Z" fill="white"/>
<path d="M840 -388H-456V908H840V-388Z" fill="white"/>
<mask id="mask0_149_241" style="mask-type:luminance" maskUnits="userSpaceOnUse" x="42" y="276" width="70" height="76">
<path d="M42.1199 276.464H112V351.682H42.1199V276.464Z" fill="white"/>
</mask>
<g mask="url(#mask0_149_241)">
<mask id="mask1_149_241" style="mask-type:luminance" maskUnits="userSpaceOnUse" x="42" y="276" width="70" height="76">
<path d="M79.7708 294.875C90.0729 298.573 85.875 301.974 85.375 301.677C84.875 301.375 86.1719 297.177 86.974 295.177C87.7708 293.276 88.7708 291.875 90.2708 289.875C92.5729 286.776 97.5729 280.776 99.974 278.776C101.073 277.776 101.672 277.276 102.771 276.974C104.073 276.573 106.271 276.573 107.573 276.974C108.672 277.276 109.573 277.974 110.271 278.875C111.073 279.974 111.771 282.073 111.875 283.474C111.974 284.677 111.474 285.875 111.073 286.677C110.771 287.276 110.672 287.573 110.073 287.974C108.875 288.776 104.974 288.375 103.271 289.776C101.375 291.375 101.672 294.276 99.5729 297.375C95.474 303.474 81.1719 316.677 77.0729 322.073C75.2708 324.474 75.2708 325.474 73.5729 327.677C70.5729 331.474 63.375 337.776 59.875 341.974C57.375 344.974 56.0729 348.474 53.974 349.974C52.5729 351.073 51.0729 351.573 49.5729 351.573C48.0729 351.573 46.2708 350.776 45.1719 350.177C44.375 349.776 43.974 349.375 43.474 348.573C42.875 347.474 42.2708 345.375 42.1719 344.073C42.1719 343.177 42.1719 342.573 42.5729 341.776C43.0729 340.677 44.0729 338.875 45.474 338.177C47.1719 337.276 50.474 336.974 52.2708 337.573C53.7708 338.073 55.0729 339.677 55.7708 340.677C56.2708 341.375 56.5729 341.974 56.5729 342.875C56.5729 344.474 55.474 348.073 54.5729 349.375C54.0729 350.177 53.474 350.474 52.6719 350.776C51.474 351.276 49.474 351.677 48.0729 351.375C46.5729 351.073 44.875 350.073 43.974 349.177C43.375 348.573 43.0729 347.875 42.7708 347.177C42.474 346.474 42.1719 345.776 42.1719 344.875C42.1719 343.677 42.2708 342.276 43.2708 340.375C45.6719 335.875 56.5729 326.474 61.5729 320.474C65.375 315.875 68.1719 310.573 70.974 307.573C72.7708 305.677 74.7708 305.177 76.0729 303.573C77.375 302.073 77.474 300.177 78.974 298.276C81.2708 295.375 86.7708 291.375 89.375 288.474C91.1719 286.474 91.875 284.573 93.474 282.875C95.1719 281.177 97.1719 279.474 99.2708 278.375C101.375 277.375 104.172 276.474 105.974 276.573C107.172 276.677 108.172 277.177 109.073 277.776C109.974 278.375 110.771 279.177 111.172 280.276C111.771 281.875 111.974 284.375 111.073 286.677C109.573 290.375 101.172 295.073 99.2708 298.677C98.0729 300.776 98.875 302.776 97.974 304.573C97.0729 306.474 95.7708 308.875 93.875 309.776C91.875 310.776 88.875 310.073 85.974 309.573C82.1719 308.875 75.5729 306.974 73.375 304.974C72.1719 303.776 71.7708 302.375 71.6719 300.974C71.5729 299.677 72.2708 297.875 72.974 296.875C73.5729 296.073 74.375 295.474 75.375 295.073C76.5729 294.677 79.7708 294.875 79.7708 294.875Z" fill="white"/>
</mask>
<g mask="url(#mask1_149_241)">
<path d="M38.1719 272.573H115.875V355.573H38.1719V272.573Z" fill="#009999"/>
</g>
</g>
<mask id="mask2_149_241" style="mask-type:luminance" maskUnits="userSpaceOnUse" x="-62" y="-2" width="480" height="416">
<path d="M-61.3333 -1.33325H417.333V413.333H-61.3333V-1.33325Z" fill="white"/>
</mask>
<g mask="url(#mask2_149_241)">
<mask id="mask3_149_241" style="mask-type:luminance" maskUnits="userSpaceOnUse" x="-61" y="-1" width="597" height="619">
<path d="M535.761 207.495L298.589 617.729L-60.3696 410.203L176.802 -0.0311279L535.761 207.495Z" fill="white"/>
</mask>
<g mask="url(#mask3_149_241)">
<mask id="mask4_149_241" style="mask-type:luminance" maskUnits="userSpaceOnUse" x="-61" y="-1" width="479" height="414">
<path d="M417.177 412.609L-60.3696 410.203L176.802 -0.0311279L417.177 412.609Z" fill="white"/>
</mask>
<g mask="url(#mask4_149_241)">
<path d="M535.761 207.495L298.589 617.729L-60.3696 410.203L176.802 -0.0311279L535.761 207.495Z" fill="#009999"/>
</g>
</g>
</g>
<path fill-rule="evenodd" clip-rule="evenodd" d="M82.5995 265.036L-26.3954 456.145L-82.8861 423.927L26.1088 232.818L82.5995 265.036Z" fill="white"/>
<mask id="mask5_149_241" style="mask-type:luminance" maskUnits="userSpaceOnUse" x="46" y="124" width="262" height="226">
<path d="M46.6667 124H308V349.333H46.6667V124Z" fill="white"/>
</mask>
<g mask="url(#mask5_149_241)">
<mask id="mask6_149_241" style="mask-type:luminance" maskUnits="userSpaceOnUse" x="47" y="124" width="326" height="338">
<path d="M372.151 237.365L242.839 461.036L47.125 347.885L176.438 124.219L372.151 237.365Z" fill="white"/>
</mask>
<g mask="url(#mask6_149_241)">
<mask id="mask7_149_241" style="mask-type:luminance" maskUnits="userSpaceOnUse" x="47" y="124" width="261" height="226">
<path d="M307.495 349.198L47.125 347.885L176.438 124.219L307.495 349.198Z" fill="white"/>
</mask>
<g mask="url(#mask7_149_241)">
<path d="M372.151 237.365L242.839 461.036L47.125 347.885L176.438 124.219L372.151 237.365Z" fill="white"/>
</g>
</g>
</g>
<path fill-rule="evenodd" clip-rule="evenodd" d="M58.9167 217.038H151.922V267.004H58.9167V217.038Z" fill="#009999"/>
<mask id="mask8_149_241" style="mask-type:luminance" maskUnits="userSpaceOnUse" x="22" y="207" width="69" height="61">
<path d="M22.5312 207.786H90.2083V267.005H22.5312V207.786Z" fill="white"/>
</mask>
<g mask="url(#mask8_149_241)">
<mask id="mask9_149_241" style="mask-type:luminance" maskUnits="userSpaceOnUse" x="22" y="207" width="69" height="61">
<path d="M56.3698 207.786L22.5312 267.005H90.2083L56.3698 207.786Z" fill="white"/>
</mask>
<g mask="url(#mask9_149_241)">
<path d="M90.2083 267.005H22.5312V207.786H90.2083V267.005Z" fill="#009999"/>
</g>
</g>
<path fill-rule="evenodd" clip-rule="evenodd" d="M36.2199 435.224L-4.67066 412.036L8.60803 388.62L49.4986 411.807L36.2199 435.224Z" fill="white"/>
<path fill-rule="evenodd" clip-rule="evenodd" d="M45.4319 287.896L37.4319 406.63L0.474331 404.14L8.47433 285.406L45.4319 287.896Z" fill="white"/>
<path fill-rule="evenodd" clip-rule="evenodd" d="M82.6541 212.968L9.01334 410.713L5.26816 409.318L78.9089 211.573L82.6541 212.968Z" fill="#009999"/>
<path fill-rule="evenodd" clip-rule="evenodd" d="M170.062 220.069H74.052V216.066H170.062V220.069Z" fill="#009999"/>
<path fill-rule="evenodd" clip-rule="evenodd" d="M235.421 234.256L178.129 313.772L126.933 276.885L184.225 197.369L235.421 234.256Z" fill="white"/>
<path fill-rule="evenodd" clip-rule="evenodd" d="M171.439 218.603L6.78771 412.009L3.74343 409.418L168.395 216.012L171.439 218.603Z" fill="#009999"/>
<path fill-rule="evenodd" clip-rule="evenodd" d="M73.4336 386.183L47.4389 428.897L44.0299 426.822L70.0247 384.109L73.4336 386.183Z" fill="white"/>
<path fill-rule="evenodd" clip-rule="evenodd" d="M56.6585 374.007L51.9658 410.716L48.0238 410.212L52.7165 373.503L56.6585 374.007Z" fill="white"/>
<mask id="mask10_149_241" style="mask-type:luminance" maskUnits="userSpaceOnUse" x="13" y="392" width="5" height="5">
<path d="M13.7449 392.74H17.6876V396.88H13.7449V392.74Z" fill="white"/>
</mask>
<g mask="url(#mask10_149_241)">
<mask id="mask11_149_241" style="mask-type:luminance" maskUnits="userSpaceOnUse" x="13" y="393" width="5" height="4">
<path d="M17.6719 394.177C15.974 396.875 14.3751 396.375 14.073 395.776C13.7709 395.177 14.073 393.573 14.573 393.177C15.073 392.776 17.1719 393.276 17.1719 393.276" fill="white"/>
</mask>
<g mask="url(#mask11_149_241)">
<path d="M10.073 389.177H21.672V400.573H10.073V389.177Z" fill="#009999"/>
</g>
</g>
<mask id="mask12_149_241" style="mask-type:luminance" maskUnits="userSpaceOnUse" x="12" y="394" width="5" height="5">
<path d="M12.2449 394.667H16.1876V398.578H12.2449V394.667Z" fill="white"/>
</mask>
<g mask="url(#mask12_149_241)">
<mask id="mask13_149_241" style="mask-type:luminance" maskUnits="userSpaceOnUse" x="12" y="394" width="5" height="4">
<path d="M16.1719 395.776C14.573 398.573 12.8751 398.073 12.573 397.474C12.2709 396.875 12.573 395.276 13.073 394.875C13.573 394.474 15.7709 394.974 15.7709 394.974" fill="white"/>
</mask>
<g mask="url(#mask13_149_241)">
<path d="M8.573 390.875H20.172V402.276H8.573V390.875Z" fill="#009999"/>
</g>
</g>
<mask id="mask14_149_241" style="mask-type:luminance" maskUnits="userSpaceOnUse" x="60" y="247" width="50" height="52">
<path d="M60.2449 247.63H109.333V298.588H60.2449V247.63Z" fill="white"/>
</mask>
<g mask="url(#mask14_149_241)">
<mask id="mask15_149_241" style="mask-type:luminance" maskUnits="userSpaceOnUse" x="60" y="247" width="50" height="52">
<path d="M106.875 275.276C87.875 297.073 77.7708 297.375 72.2708 294.974C67.375 292.875 63.1719 286.276 61.474 282.073C60.2708 278.974 60.2708 275.974 60.7708 273.073C61.2708 270.177 62.5729 267.177 64.375 264.875C66.1719 262.573 69.2708 260.474 71.375 259.276C72.875 258.474 73.974 258.073 75.6719 257.875C78.0729 257.573 82.2708 257.677 84.6719 258.276C86.375 258.677 87.375 259.073 88.7708 260.073C90.7708 261.474 93.875 264.375 95.2708 266.375C96.2708 267.776 96.7708 268.776 97.1719 270.474C97.7708 272.875 98.0729 276.974 97.974 279.677C97.875 281.875 97.5729 283.776 96.974 285.677C96.375 287.573 95.375 289.474 94.1719 291.073C92.974 292.677 91.474 294.177 89.7708 295.276C88.1719 296.375 86.1719 297.276 84.2708 297.776C82.375 298.276 80.1719 298.573 78.1719 298.474C76.1719 298.375 74.0729 297.875 72.2708 297.177C70.375 296.375 68.5729 295.276 67.0729 293.974C65.5729 292.677 64.1719 291.073 63.1719 289.375C62.1719 287.677 61.2708 285.677 60.875 283.776C60.474 281.776 60.375 279.677 60.5729 277.677C60.7708 275.677 61.375 273.573 62.1719 271.776C62.974 269.974 64.1719 268.177 65.5729 266.776C66.974 265.276 68.6719 263.974 70.474 263.073C72.2708 262.177 74.1719 261.474 76.1719 261.177C78.1719 260.875 80.2708 260.875 82.2708 261.177C84.2708 261.474 86.1719 262.276 87.974 263.177C89.7708 264.073 91.474 265.375 92.875 266.776C94.2708 268.276 95.474 270.073 96.2708 271.875C97.0729 273.677 97.6719 275.677 97.875 277.677C98.0729 279.677 97.974 281.776 97.5729 283.776C97.1719 285.677 96.2708 287.677 95.2708 289.375C94.2708 291.073 92.875 292.677 91.375 293.974C89.875 295.276 88.0729 296.375 86.1719 297.177C84.375 297.875 82.2708 298.375 80.2708 298.474C78.2708 298.573 76.0729 298.276 74.1719 297.776C72.2708 297.276 70.2708 296.375 68.6719 295.276C66.974 294.177 65.474 292.677 64.2708 291.073C63.0729 289.474 62.0729 287.573 61.474 285.677C60.875 283.776 60.2708 279.776 60.474 279.677C60.5729 279.677 61.2708 282.073 61.474 282.073C61.7708 281.974 60.2708 275.974 60.7708 273.073C61.2708 270.177 62.5729 267.177 64.375 264.875C66.1719 262.573 69.2708 260.474 71.375 259.276C72.875 258.474 73.974 258.073 75.6719 257.875C78.0729 257.573 82.2708 257.677 84.6719 258.276C86.375 258.677 87.375 259.073 88.7708 260.073C90.7708 261.474 93.875 264.375 95.2708 266.375C96.2708 267.776 97.1719 270.474 97.1719 270.474C97.1719 270.474 97.0729 268.974 96.2708 268.276C93.6719 265.875 74.1719 264.375 72.974 260.875C72.2708 258.776 76.375 255.375 77.974 253.573C79.1719 252.276 79.875 251.573 81.375 250.776C83.474 249.573 87.2708 248.276 89.6719 247.974C91.375 247.776 92.474 247.776 94.0729 248.177C96.375 248.677 99.875 249.875 102.073 251.573C104.375 253.276 106.375 255.776 107.573 258.375C108.771 260.875 109.375 264.073 109.271 266.875C109.172 269.677 106.875 275.276 106.875 275.276Z" fill="white"/>
</mask>
<g mask="url(#mask15_149_241)">
<path d="M56.4739 243.974H113.271V302.474H56.4739V243.974Z" fill="#009999"/>
</g>
</g>
<mask id="mask16_149_241" style="mask-type:luminance" maskUnits="userSpaceOnUse" x="45" y="292" width="37" height="38">
<path d="M45.5261 292.583H81.0365V329.026H45.5261V292.583Z" fill="white"/>
</mask>
<g mask="url(#mask16_149_241)">
<mask id="mask17_149_241" style="mask-type:luminance" maskUnits="userSpaceOnUse" x="45" y="292" width="36" height="37">
<path d="M80.875 305.474C80.974 316.875 79.5729 319.776 77.875 321.974C76.1719 324.177 73.5729 326.177 71.0729 327.276C68.5729 328.375 65.474 328.974 62.6719 328.776C59.875 328.573 56.7709 327.677 54.375 326.276C51.974 324.875 49.6719 322.573 48.2709 320.177C46.875 317.776 45.974 314.776 45.7709 311.974C45.5729 309.177 46.1719 306.073 47.2709 303.474C48.375 300.974 50.375 298.375 52.5729 296.677C54.7709 294.974 57.6719 293.677 60.474 293.177C63.1719 292.677 66.375 292.875 69.0729 293.677C71.7709 294.474 76.474 298.073 76.474 298.073" fill="white"/>
</mask>
<g mask="url(#mask17_149_241)">
<path d="M41.771 289.177H85.4741V332.776H41.771V289.177Z" fill="#009999"/>
</g>
</g>
<mask id="mask18_149_241" style="mask-type:luminance" maskUnits="userSpaceOnUse" x="72" y="261" width="36" height="38">
<path d="M72.2188 261.891H107.646V298.417H72.2188V261.891Z" fill="white"/>
</mask>
<g mask="url(#mask18_149_241)">
<mask id="mask19_149_241" style="mask-type:luminance" maskUnits="userSpaceOnUse" x="72" y="262" width="36" height="37">
<path d="M107.573 274.875C107.573 286.177 106.271 289.073 104.573 291.276C102.875 293.474 100.271 295.375 97.7709 296.573C95.172 297.776 92.073 298.375 89.2709 298.177C86.474 297.974 83.474 296.974 81.073 295.573C78.672 294.073 76.3751 291.875 74.974 289.474C73.573 287.073 72.672 284.073 72.474 281.276C72.2709 278.474 72.8751 275.276 73.974 272.776C75.073 270.276 77.073 267.776 79.2709 266.073C81.474 264.375 84.3751 262.974 87.172 262.474C89.8751 261.974 93.073 262.177 95.7709 262.974C98.474 263.776 103.172 267.474 103.172 267.474" fill="white"/>
</mask>
<g mask="url(#mask19_149_241)">
<path d="M68.4741 258.474H112.073V302.177H68.4741V258.474Z" fill="#009999"/>
</g>
</g>
<mask id="mask20_149_241" style="mask-type:luminance" maskUnits="userSpaceOnUse" x="88" y="248" width="38" height="38">
<path d="M88.8645 248.656H125.333V285.094H88.8645V248.656Z" fill="white"/>
</mask>
<g mask="url(#mask20_149_241)">
<mask id="mask21_149_241" style="mask-type:luminance" maskUnits="userSpaceOnUse" x="89" y="248" width="37" height="37">
<path d="M107.172 248.875C114.771 250.375 116.573 251.375 118.073 252.573C119.573 253.776 120.974 255.177 122.073 256.776C123.172 258.375 124.073 260.177 124.573 262.073C125.073 263.875 125.271 265.974 125.172 267.875C125.073 269.776 124.573 271.776 123.875 273.573C123.172 275.375 122.073 277.073 120.875 278.573C119.672 279.974 118.073 281.276 116.474 282.276C114.875 283.276 112.974 284.073 111.073 284.474C109.172 284.875 107.172 284.974 105.271 284.776C103.375 284.573 101.375 283.974 99.6718 283.177C97.8749 282.375 96.1718 281.276 94.7707 279.974C93.3749 278.677 92.1718 276.974 91.2707 275.276C90.3749 273.573 89.6718 271.677 89.3749 269.776C89.0728 267.875 89.0728 265.875 89.3749 263.974C89.6718 262.073 90.3749 260.177 91.2707 258.474C92.1718 256.776 93.3749 255.073 94.7707 253.776C96.1718 252.474 97.8749 251.276 99.6718 250.474C101.375 249.677 103.375 249.177 105.271 248.974C107.172 248.776 109.172 248.875 111.073 249.276C112.974 249.677 114.875 250.474 116.474 251.474C118.073 252.474 119.672 253.776 120.875 255.177C122.073 256.677 123.172 258.375 123.875 260.177C124.573 261.974 125.073 263.974 125.172 265.875C125.271 267.776 125.073 269.875 124.573 271.677C124.073 273.573 123.172 275.375 122.073 276.974C120.974 278.573 119.573 279.974 118.073 281.177C116.573 282.375 114.771 283.375 112.974 283.974C111.172 284.573 109.271 284.974 107.172 284.875C104.573 284.776 101.271 284.177 98.7707 282.875C96.2707 281.573 93.7707 279.073 92.2707 277.276C91.2707 275.974 90.6718 275.073 90.1718 273.474C89.4738 271.276 88.9738 267.177 89.0728 264.875C89.1718 263.177 89.3749 262.177 90.0728 260.677C90.9738 258.474 93.1718 255.177 94.8749 253.474C96.0728 252.276 96.9738 251.677 98.4738 250.974C100.573 249.974 106.771 248.875 106.771 248.875" fill="white"/>
</mask>
<g mask="url(#mask21_149_241)">
<path d="M85.0728 244.875H129.172V288.875H85.0728V244.875Z" fill="#009999"/>
</g>
</g>
<mask id="mask22_149_241" style="mask-type:luminance" maskUnits="userSpaceOnUse" x="57" y="272" width="13" height="14">
<path d="M57.6458 272.76H69.4999V285.042H57.6458V272.76Z" fill="white"/>
</mask>
<g mask="url(#mask22_149_241)">
<mask id="mask23_149_241" style="mask-type:luminance" maskUnits="userSpaceOnUse" x="57" y="272" width="13" height="13">
<path d="M69.4739 276.974C67.9739 283.375 67.0729 283.875 66.1719 284.276C65.375 284.677 64.375 284.974 63.375 284.776C61.9739 284.474 59.4739 283.276 58.5729 281.875C57.6719 280.474 57.875 277.677 58.2708 276.276C58.5729 275.276 59.2708 274.677 59.9739 274.073C60.6719 273.474 61.5729 272.974 62.6719 272.875C64.1719 272.776 67.9739 274.474 67.9739 274.474" fill="white"/>
</mask>
<g mask="url(#mask23_149_241)">
<path d="M54.2708 268.875H73.4739V288.776H54.2708V268.875Z" fill="#009999"/>
</g>
</g>
<mask id="mask24_149_241" style="mask-type:luminance" maskUnits="userSpaceOnUse" x="60" y="264" width="12" height="12">
<path d="M60 264.042H71.6042V276H60V264.042Z" fill="white"/>
</mask>
<g mask="url(#mask24_149_241)">
<mask id="mask25_149_241" style="mask-type:luminance" maskUnits="userSpaceOnUse" x="60" y="264" width="12" height="12">
<path d="M71.573 268.375C71.375 272.573 69.875 274.875 68.375 275.573C66.875 276.276 64.073 275.875 62.7709 275.276C61.875 274.875 61.1719 274.177 60.7709 273.177C60.1719 271.875 59.974 269.073 60.375 267.677C60.6719 266.677 61.474 265.974 62.1719 265.375C62.875 264.776 63.7709 264.276 64.7709 264.177C66.2709 264.073 70.1719 265.875 70.1719 265.875" fill="white"/>
</mask>
<g mask="url(#mask25_149_241)">
<path d="M56.375 260.177H75.7708V279.573H56.375V260.177Z" fill="#009999"/>
</g>
</g>
<path fill-rule="evenodd" clip-rule="evenodd" d="M154.527 219.178L17.2147 396.168L14.0564 393.717L151.369 216.728L154.527 219.178Z" fill="#009999"/>
<path fill-rule="evenodd" clip-rule="evenodd" d="M205.394 222.512L35.3684 443.73L0.506481 416.936L170.533 195.717L205.394 222.512Z" fill="white"/>
<mask id="mask26_149_241" style="mask-type:luminance" maskUnits="userSpaceOnUse" x="-9" y="377" width="27" height="35">
<path d="M-8.04175 377.526H17.2708V411.99H-8.04175V377.526Z" fill="white"/>
</mask>
<g mask="url(#mask26_149_241)">
<mask id="mask27_149_241" style="mask-type:luminance" maskUnits="userSpaceOnUse" x="-9" y="377" width="27" height="35">
<path d="M4.6145 411.99L17.2708 377.526H-8.04175L4.6145 411.99Z" fill="white"/>
</mask>
<g mask="url(#mask27_149_241)">
<path d="M-8.04175 377.526H17.2708V411.99H-8.04175V377.526Z" fill="white"/>
</g>
</g>
<mask id="mask28_149_241" style="mask-type:luminance" maskUnits="userSpaceOnUse" x="4" y="212" width="130" height="200">
<path d="M4 212H133.333V412H4V212Z" fill="white"/>
</mask>
<g mask="url(#mask28_149_241)">
<mask id="mask29_149_241" style="mask-type:luminance" maskUnits="userSpaceOnUse" x="-20" y="212" width="153" height="214">
<path d="M84.6718 212.599L132.771 239.594L28.703 425.036L-19.4011 398.042L84.6718 212.599Z" fill="white"/>
</mask>
<g mask="url(#mask29_149_241)">
<mask id="mask30_149_241" style="mask-type:luminance" maskUnits="userSpaceOnUse" x="4" y="212" width="129" height="200">
<path d="M4.65088 411.536L132.771 239.594L84.6717 212.599L4.65088 411.536Z" fill="white"/>
</mask>
<g mask="url(#mask30_149_241)">
<path d="M84.6718 212.599L132.771 239.594L28.703 425.036L-19.4011 398.042L84.6718 212.599Z" fill="#009999"/>
</g>
</g>
</g>
</g>
<defs>
<clipPath id="clip0_149_241">
<rect width="741" height="289" fill="white" transform="translate(491 91)"/>
</clipPath>
<clipPath id="clip1_149_241">
<rect width="417" height="413" fill="white"/>
</clipPath>
</defs>
</svg>
