<svg width="1435" height="515" viewBox="0 0 1435 515" fill="none" xmlns="http://www.w3.org/2000/svg">
<g clip-path="url(#clip0_149_241)">
<path d="M1543 -393H247V903H1543V-393Z" fill="white"/>
<path d="M1543 -393H247V903H1543V-393Z" fill="white"/>
<path d="M1543 -393H247V903H1543V-393Z" fill="white"/>
<path d="M771.881 148.649H756.402L764.142 126.867L771.881 148.649ZM794.746 172.05L769.902 110.852H758.475L733.631 172.05H748.121L752.532 159.722H775.845L780.251 172.05H794.746Z" fill="#009999"/>
<path d="M818.594 172.05H854.053V159.81H832.094V110.852H818.594V172.05Z" fill="#009999"/>
<path d="M894.104 150.18H903.552C913.453 150.18 922.271 142.888 922.271 130.472C922.271 118.862 913.453 110.852 903.552 110.852H880.604V172.05H894.104V150.18ZM901.302 121.472C905.265 121.472 909.401 124.888 909.401 130.472C909.401 136.321 905.265 139.56 901.302 139.56H894.104V121.472H901.302Z" fill="#009999"/>
<path d="M980.685 110.852V135.237H960.524V110.852H947.024V172.05H960.524V147.482H980.685V172.05H995.081V110.852H980.685Z" fill="#009999"/>
<path d="M1057.18 148.649H1041.7L1049.44 126.867L1057.18 148.649ZM1080.05 172.05L1055.2 110.852H1043.77L1018.93 172.05H1033.42L1037.83 159.722H1061.14L1065.55 172.05H1080.05Z" fill="#009999"/>
<path d="M548.205 256.549H532.726L540.465 234.768L548.205 256.549ZM571.07 279.95L546.226 218.752H534.799L509.955 279.95H524.445L528.856 267.622H552.169L556.575 279.95H571.07Z" fill="#009999"/>
<path d="M630.647 218.752V254.122C630.647 262.581 628.126 267.351 618.856 267.351C609.678 267.351 607.069 262.581 607.069 254.122V218.752H593.569V256.101C593.569 272.388 602.928 280.851 618.856 280.851C634.788 280.851 644.147 272.388 644.147 256.101V218.752H630.647Z" fill="#009999"/>
<path d="M697.609 230.992H715.067V218.752H666.645V230.992H684.109V279.95H697.609V230.992Z" fill="#009999"/>
<path d="M786.168 249.263C786.168 258.711 777.616 267.351 768.168 267.351C758.715 267.351 750.168 258.711 750.168 249.263C750.168 239.81 758.715 231.263 768.168 231.263C777.616 231.263 786.168 239.81 786.168 249.263ZM799.668 249.351C799.668 232.429 785.085 217.851 768.168 217.851C751.246 217.851 736.668 232.429 736.668 249.351C736.668 266.268 751.246 280.851 768.168 280.851C785.085 280.851 799.668 266.268 799.668 249.351Z" fill="#009999"/>
<path d="M902.536 279.95L890.656 218.752H874.635L861.947 261.68L849.166 218.752H833.145L821.265 279.95H836.119L843.317 237.742L855.286 279.95H868.515L880.489 237.742L887.687 279.95H902.536Z" fill="#009999"/>
<path d="M959.685 256.549H944.206L951.945 234.768L959.685 256.549ZM982.549 279.95L957.706 218.752H946.279L921.435 279.95H935.924L940.336 267.622H963.648L968.055 279.95H982.549Z" fill="#009999"/>
<path d="M1032.41 230.992H1049.87V218.752H1001.44V230.992H1018.91V279.95H1032.41V230.992Z" fill="#009999"/>
<path d="M1087.22 279.95V218.752H1073.72V279.95H1087.22Z" fill="#009999"/>
<path d="M1163.27 249.263C1163.27 258.711 1154.72 267.351 1145.27 267.351C1135.81 267.351 1127.27 258.711 1127.27 249.263C1127.27 239.81 1135.81 231.263 1145.27 231.263C1154.72 231.263 1163.27 239.81 1163.27 249.263ZM1176.77 249.351C1176.77 232.429 1162.18 217.851 1145.27 217.851C1128.35 217.851 1113.77 232.429 1113.77 249.351C1113.77 266.268 1128.35 280.851 1145.27 280.851C1162.18 280.851 1176.77 266.268 1176.77 249.351Z" fill="#009999"/>
<path d="M1251.37 279.95V218.752H1237.87V256.909L1216.82 218.752H1203.32V279.95H1216.82V241.789L1237.87 279.95H1251.37Z" fill="#009999"/>
<path d="M768.766 146.057L776.505 167.719" stroke="white" stroke-width="4.0442"/>
<path d="M543.505 249.636L551.995 273.162" stroke="white" stroke-width="4.02906"/>
<path d="M957.187 255.636L965.677 279.162" stroke="white" stroke-width="4.02906"/>
<path d="M1053.87 145.385L1061.93 168" stroke="white" stroke-width="4.021"/>
<path d="M785.245 350.45C791.183 350.45 797.308 352.883 800.277 359.362H815.126C810.896 346.669 798.745 337.851 785.245 337.851C767.964 337.851 753.745 352.07 753.745 369.351C753.745 386.633 767.964 400.851 785.245 400.851C802.704 400.851 816.657 386.721 816.657 369.351V367.278H786.506V377.45H802.073C798.745 386.721 791.183 388.612 785.245 388.612C775.527 388.612 767.428 379.883 767.428 369.528C767.428 359.179 775.527 350.45 785.245 350.45Z" fill="#009999"/>
<path d="M919.524 399.95L907.644 338.752H891.623L878.935 381.679L866.154 338.752H850.133L838.253 399.95H853.107L860.305 357.742L872.274 399.95H885.503L897.477 357.742L904.675 399.95H919.524Z" fill="#009999"/>
<path d="M972.897 382.039C972.897 386.091 969.475 389.419 965.423 389.419H956.876V374.658H965.423C969.475 374.658 972.897 378.08 972.897 382.039ZM968.663 356.481C968.663 360.351 965.423 363.591 961.553 363.591H956.876V349.372H961.553C965.423 349.372 968.663 352.518 968.663 356.481ZM986.663 382.398C986.663 374.122 981.085 368.632 974.246 367.013C978.835 364.94 981.538 360.263 981.538 354.049C981.538 345.679 974.876 338.752 964.434 338.752H943.376V399.95H968.126C979.824 399.95 986.663 392.929 986.663 382.398Z" fill="#009999"/>
<path d="M1044.63 338.752V363.138H1024.47V338.752H1010.97V399.95H1024.47V375.382H1044.63V399.95H1059.02V338.752H1044.63Z" fill="#009999"/>
</g>
<g clip-path="url(#clip1_149_241)">
<path d="M859 -368H-437V928H859V-368Z" fill="white"/>
<path d="M859 -368H-437V928H859V-368Z" fill="white"/>
<path d="M859 -368H-437V928H859V-368Z" fill="white"/>
<mask id="mask0_149_241" style="mask-type:luminance" maskUnits="userSpaceOnUse" x="61" y="296" width="70" height="76">
<path d="M61.1199 296.464H131V371.682H61.1199V296.464Z" fill="white"/>
</mask>
<g mask="url(#mask0_149_241)">
<mask id="mask1_149_241" style="mask-type:luminance" maskUnits="userSpaceOnUse" x="61" y="296" width="70" height="76">
<path d="M98.7708 314.875C109.073 318.573 104.875 321.974 104.375 321.677C103.875 321.375 105.172 317.177 105.974 315.177C106.771 313.276 107.771 311.875 109.271 309.875C111.573 306.776 116.573 300.776 118.974 298.776C120.073 297.776 120.672 297.276 121.771 296.974C123.073 296.573 125.271 296.573 126.573 296.974C127.672 297.276 128.573 297.974 129.271 298.875C130.073 299.974 130.771 302.073 130.875 303.474C130.974 304.677 130.474 305.875 130.073 306.677C129.771 307.276 129.672 307.573 129.073 307.974C127.875 308.776 123.974 308.375 122.271 309.776C120.375 311.375 120.672 314.276 118.573 317.375C114.474 323.474 100.172 336.677 96.0729 342.073C94.2708 344.474 94.2708 345.474 92.5729 347.677C89.5729 351.474 82.375 357.776 78.875 361.974C76.375 364.974 75.0729 368.474 72.974 369.974C71.5729 371.073 70.0729 371.573 68.5729 371.573C67.0729 371.573 65.2708 370.776 64.1719 370.177C63.375 369.776 62.974 369.375 62.474 368.573C61.875 367.474 61.2708 365.375 61.1719 364.073C61.1719 363.177 61.1719 362.573 61.5729 361.776C62.0729 360.677 63.0729 358.875 64.474 358.177C66.1719 357.276 69.474 356.974 71.2708 357.573C72.7708 358.073 74.0729 359.677 74.7708 360.677C75.2708 361.375 75.5729 361.974 75.5729 362.875C75.5729 364.474 74.474 368.073 73.5729 369.375C73.0729 370.177 72.474 370.474 71.6719 370.776C70.474 371.276 68.474 371.677 67.0729 371.375C65.5729 371.073 63.875 370.073 62.974 369.177C62.375 368.573 62.0729 367.875 61.7708 367.177C61.474 366.474 61.1719 365.776 61.1719 364.875C61.1719 363.677 61.2708 362.276 62.2708 360.375C64.6719 355.875 75.5729 346.474 80.5729 340.474C84.375 335.875 87.1719 330.573 89.974 327.573C91.7708 325.677 93.7708 325.177 95.0729 323.573C96.375 322.073 96.474 320.177 97.974 318.276C100.271 315.375 105.771 311.375 108.375 308.474C110.172 306.474 110.875 304.573 112.474 302.875C114.172 301.177 116.172 299.474 118.271 298.375C120.375 297.375 123.172 296.474 124.974 296.573C126.172 296.677 127.172 297.177 128.073 297.776C128.974 298.375 129.771 299.177 130.172 300.276C130.771 301.875 130.974 304.375 130.073 306.677C128.573 310.375 120.172 315.073 118.271 318.677C117.073 320.776 117.875 322.776 116.974 324.573C116.073 326.474 114.771 328.875 112.875 329.776C110.875 330.776 107.875 330.073 104.974 329.573C101.172 328.875 94.5729 326.974 92.375 324.974C91.1719 323.776 90.7708 322.375 90.6719 320.974C90.5729 319.677 91.2708 317.875 91.974 316.875C92.5729 316.073 93.375 315.474 94.375 315.073C95.5729 314.677 98.7708 314.875 98.7708 314.875Z" fill="white"/>
</mask>
<g mask="url(#mask1_149_241)">
<path d="M57.1719 292.573H134.875V375.573H57.1719V292.573Z" fill="#009999"/>
</g>
</g>
<mask id="mask2_149_241" style="mask-type:luminance" maskUnits="userSpaceOnUse" x="-43" y="18" width="480" height="416">
<path d="M-42.3333 18.6667H436.333V433.333H-42.3333V18.6667Z" fill="white"/>
</mask>
<g mask="url(#mask2_149_241)">
<mask id="mask3_149_241" style="mask-type:luminance" maskUnits="userSpaceOnUse" x="-42" y="19" width="597" height="619">
<path d="M554.761 227.495L317.589 637.729L-41.3696 430.203L195.802 19.9689L554.761 227.495Z" fill="white"/>
</mask>
<g mask="url(#mask3_149_241)">
<mask id="mask4_149_241" style="mask-type:luminance" maskUnits="userSpaceOnUse" x="-42" y="19" width="479" height="414">
<path d="M436.177 432.609L-41.3696 430.203L195.802 19.9689L436.177 432.609Z" fill="white"/>
</mask>
<g mask="url(#mask4_149_241)">
<path d="M554.761 227.495L317.589 637.729L-41.3696 430.203L195.802 19.9689L554.761 227.495Z" fill="#009999"/>
</g>
</g>
</g>
<path d="M-35.6406 460.036L73.3543 268.927" stroke="white" stroke-width="65.0324"/>
<mask id="mask5_149_241" style="mask-type:luminance" maskUnits="userSpaceOnUse" x="65" y="144" width="262" height="226">
<path d="M65.6667 144H327V369.333H65.6667V144Z" fill="white"/>
</mask>
<g mask="url(#mask5_149_241)">
<mask id="mask6_149_241" style="mask-type:luminance" maskUnits="userSpaceOnUse" x="66" y="144" width="326" height="338">
<path d="M391.151 257.365L261.839 481.036L66.125 367.885L195.438 144.219L391.151 257.365Z" fill="white"/>
</mask>
<g mask="url(#mask6_149_241)">
<mask id="mask7_149_241" style="mask-type:luminance" maskUnits="userSpaceOnUse" x="66" y="144" width="261" height="226">
<path d="M326.495 369.198L66.125 367.885L195.438 144.219L326.495 369.198Z" fill="white"/>
</mask>
<g mask="url(#mask7_149_241)">
<path d="M391.151 257.365L261.839 481.036L66.125 367.885L195.438 144.219L391.151 257.365Z" fill="white"/>
</g>
</g>
</g>
<path d="M170.922 262.021H77.9167" stroke="#009999" stroke-width="49.9664"/>
<mask id="mask8_149_241" style="mask-type:luminance" maskUnits="userSpaceOnUse" x="41" y="227" width="69" height="61">
<path d="M41.5312 227.786H109.208V287.005H41.5312V227.786Z" fill="white"/>
</mask>
<g mask="url(#mask8_149_241)">
<mask id="mask9_149_241" style="mask-type:luminance" maskUnits="userSpaceOnUse" x="41" y="227" width="69" height="61">
<path d="M75.3698 227.786L41.5312 287.005H109.208L75.3698 227.786Z" fill="white"/>
</mask>
<g mask="url(#mask9_149_241)">
<path d="M109.208 287.005H41.5312V227.786H109.208V287.005Z" fill="#009999"/>
</g>
</g>
<path d="M20.9686 420.328L61.8592 443.516" stroke="white" stroke-width="26.9196"/>
<path d="M37.9531 425.385L45.9531 306.651" stroke="white" stroke-width="37.0414"/>
<path d="M26.1407 430.016L99.7815 232.271" stroke="#009999" stroke-width="3.99645"/>
<path d="M93.052 238.068H189.062" stroke="#009999" stroke-width="4.00293"/>
<path d="M171.531 315.328L228.823 235.813" stroke="white" stroke-width="63.1007"/>
<path d="M24.2656 430.714L188.917 237.307" stroke="#009999" stroke-width="3.99803"/>
<path d="M64.7344 447.859L90.7292 405.146" stroke="white" stroke-width="3.99066"/>
<path d="M68.9947 430.464L73.6874 393.755" stroke="white" stroke-width="3.97407"/>
<mask id="mask10_149_241" style="mask-type:luminance" maskUnits="userSpaceOnUse" x="32" y="412" width="5" height="5">
<path d="M32.7449 412.74H36.6876V416.88H32.7449V412.74Z" fill="white"/>
</mask>
<g mask="url(#mask10_149_241)">
<mask id="mask11_149_241" style="mask-type:luminance" maskUnits="userSpaceOnUse" x="32" y="413" width="5" height="4">
<path d="M36.6719 414.177C34.974 416.875 33.3751 416.375 33.073 415.776C32.7709 415.177 33.073 413.573 33.573 413.177C34.073 412.776 36.1719 413.276 36.1719 413.276" fill="white"/>
</mask>
<g mask="url(#mask11_149_241)">
<path d="M29.073 409.177H40.672V420.573H29.073V409.177Z" fill="#009999"/>
</g>
</g>
<mask id="mask12_149_241" style="mask-type:luminance" maskUnits="userSpaceOnUse" x="31" y="414" width="5" height="5">
<path d="M31.2449 414.667H35.1876V418.578H31.2449V414.667Z" fill="white"/>
</mask>
<g mask="url(#mask12_149_241)">
<mask id="mask13_149_241" style="mask-type:luminance" maskUnits="userSpaceOnUse" x="31" y="414" width="5" height="4">
<path d="M35.1719 415.776C33.573 418.573 31.8751 418.073 31.573 417.474C31.2709 416.875 31.573 415.276 32.073 414.875C32.573 414.474 34.7709 414.974 34.7709 414.974" fill="white"/>
</mask>
<g mask="url(#mask13_149_241)">
<path d="M27.573 410.875H39.172V422.276H27.573V410.875Z" fill="#009999"/>
</g>
</g>
<mask id="mask14_149_241" style="mask-type:luminance" maskUnits="userSpaceOnUse" x="79" y="267" width="50" height="52">
<path d="M79.2449 267.63H128.333V318.588H79.2449V267.63Z" fill="white"/>
</mask>
<g mask="url(#mask14_149_241)">
<mask id="mask15_149_241" style="mask-type:luminance" maskUnits="userSpaceOnUse" x="79" y="267" width="50" height="52">
<path d="M125.875 295.276C106.875 317.073 96.7708 317.375 91.2708 314.974C86.375 312.875 82.1719 306.276 80.474 302.073C79.2708 298.974 79.2708 295.974 79.7708 293.073C80.2708 290.177 81.5729 287.177 83.375 284.875C85.1719 282.573 88.2708 280.474 90.375 279.276C91.875 278.474 92.974 278.073 94.6719 277.875C97.0729 277.573 101.271 277.677 103.672 278.276C105.375 278.677 106.375 279.073 107.771 280.073C109.771 281.474 112.875 284.375 114.271 286.375C115.271 287.776 115.771 288.776 116.172 290.474C116.771 292.875 117.073 296.974 116.974 299.677C116.875 301.875 116.573 303.776 115.974 305.677C115.375 307.573 114.375 309.474 113.172 311.073C111.974 312.677 110.474 314.177 108.771 315.276C107.172 316.375 105.172 317.276 103.271 317.776C101.375 318.276 99.1719 318.573 97.1719 318.474C95.1719 318.375 93.0729 317.875 91.2708 317.177C89.375 316.375 87.5729 315.276 86.0729 313.974C84.5729 312.677 83.1719 311.073 82.1719 309.375C81.1719 307.677 80.2708 305.677 79.875 303.776C79.474 301.776 79.375 299.677 79.5729 297.677C79.7708 295.677 80.375 293.573 81.1719 291.776C81.974 289.974 83.1719 288.177 84.5729 286.776C85.974 285.276 87.6719 283.974 89.474 283.073C91.2708 282.177 93.1719 281.474 95.1719 281.177C97.1719 280.875 99.2708 280.875 101.271 281.177C103.271 281.474 105.172 282.276 106.974 283.177C108.771 284.073 110.474 285.375 111.875 286.776C113.271 288.276 114.474 290.073 115.271 291.875C116.073 293.677 116.672 295.677 116.875 297.677C117.073 299.677 116.974 301.776 116.573 303.776C116.172 305.677 115.271 307.677 114.271 309.375C113.271 311.073 111.875 312.677 110.375 313.974C108.875 315.276 107.073 316.375 105.172 317.177C103.375 317.875 101.271 318.375 99.2708 318.474C97.2708 318.573 95.0729 318.276 93.1719 317.776C91.2708 317.276 89.2708 316.375 87.6719 315.276C85.974 314.177 84.474 312.677 83.2708 311.073C82.0729 309.474 81.0729 307.573 80.474 305.677C79.875 303.776 79.2708 299.776 79.474 299.677C79.5729 299.677 80.2708 302.073 80.474 302.073C80.7708 301.974 79.2708 295.974 79.7708 293.073C80.2708 290.177 81.5729 287.177 83.375 284.875C85.1719 282.573 88.2708 280.474 90.375 279.276C91.875 278.474 92.974 278.073 94.6719 277.875C97.0729 277.573 101.271 277.677 103.672 278.276C105.375 278.677 106.375 279.073 107.771 280.073C109.771 281.474 112.875 284.375 114.271 286.375C115.271 287.776 116.172 290.474 116.172 290.474C116.172 290.474 116.073 288.974 115.271 288.276C112.672 285.875 93.1719 284.375 91.974 280.875C91.2708 278.776 95.375 275.375 96.974 273.573C98.1719 272.276 98.875 271.573 100.375 270.776C102.474 269.573 106.271 268.276 108.672 267.974C110.375 267.776 111.474 267.776 113.073 268.177C115.375 268.677 118.875 269.875 121.073 271.573C123.375 273.276 125.375 275.776 126.573 278.375C127.771 280.875 128.375 284.073 128.271 286.875C128.172 289.677 125.875 295.276 125.875 295.276Z" fill="white"/>
</mask>
<g mask="url(#mask15_149_241)">
<path d="M75.4739 263.974H132.271V322.474H75.4739V263.974Z" fill="#009999"/>
</g>
</g>
<mask id="mask16_149_241" style="mask-type:luminance" maskUnits="userSpaceOnUse" x="64" y="312" width="37" height="38">
<path d="M64.5261 312.583H100.037V349.026H64.5261V312.583Z" fill="white"/>
</mask>
<g mask="url(#mask16_149_241)">
<mask id="mask17_149_241" style="mask-type:luminance" maskUnits="userSpaceOnUse" x="64" y="312" width="36" height="37">
<path d="M99.875 325.474C99.974 336.875 98.5729 339.776 96.875 341.974C95.1719 344.177 92.5729 346.177 90.0729 347.276C87.5729 348.375 84.474 348.974 81.6719 348.776C78.875 348.573 75.7709 347.677 73.375 346.276C70.974 344.875 68.6719 342.573 67.2709 340.177C65.875 337.776 64.974 334.776 64.7709 331.974C64.5729 329.177 65.1719 326.073 66.2709 323.474C67.375 320.974 69.375 318.375 71.5729 316.677C73.7709 314.974 76.6719 313.677 79.474 313.177C82.1719 312.677 85.375 312.875 88.0729 313.677C90.7709 314.474 95.474 318.073 95.474 318.073" fill="white"/>
</mask>
<g mask="url(#mask17_149_241)">
<path d="M60.771 309.177H104.474V352.776H60.771V309.177Z" fill="#009999"/>
</g>
</g>
<mask id="mask18_149_241" style="mask-type:luminance" maskUnits="userSpaceOnUse" x="91" y="281" width="36" height="38">
<path d="M91.2188 281.891H126.646V318.417H91.2188V281.891Z" fill="white"/>
</mask>
<g mask="url(#mask18_149_241)">
<mask id="mask19_149_241" style="mask-type:luminance" maskUnits="userSpaceOnUse" x="91" y="282" width="36" height="37">
<path d="M126.573 294.875C126.573 306.177 125.271 309.073 123.573 311.276C121.875 313.474 119.271 315.375 116.771 316.573C114.172 317.776 111.073 318.375 108.271 318.177C105.474 317.974 102.474 316.974 100.073 315.573C97.672 314.073 95.3751 311.875 93.974 309.474C92.573 307.073 91.672 304.073 91.474 301.276C91.2709 298.474 91.8751 295.276 92.974 292.776C94.073 290.276 96.073 287.776 98.2709 286.073C100.474 284.375 103.375 282.974 106.172 282.474C108.875 281.974 112.073 282.177 114.771 282.974C117.474 283.776 122.172 287.474 122.172 287.474" fill="white"/>
</mask>
<g mask="url(#mask19_149_241)">
<path d="M87.4741 278.474H131.073V322.177H87.4741V278.474Z" fill="#009999"/>
</g>
</g>
<mask id="mask20_149_241" style="mask-type:luminance" maskUnits="userSpaceOnUse" x="107" y="268" width="38" height="38">
<path d="M107.865 268.656H144.333V305.094H107.865V268.656Z" fill="white"/>
</mask>
<g mask="url(#mask20_149_241)">
<mask id="mask21_149_241" style="mask-type:luminance" maskUnits="userSpaceOnUse" x="108" y="268" width="37" height="37">
<path d="M126.172 268.875C133.771 270.375 135.573 271.375 137.073 272.573C138.573 273.776 139.974 275.177 141.073 276.776C142.172 278.375 143.073 280.177 143.573 282.073C144.073 283.875 144.271 285.974 144.172 287.875C144.073 289.776 143.573 291.776 142.875 293.573C142.172 295.375 141.073 297.073 139.875 298.573C138.672 299.974 137.073 301.276 135.474 302.276C133.875 303.276 131.974 304.073 130.073 304.474C128.172 304.875 126.172 304.974 124.271 304.776C122.375 304.573 120.375 303.974 118.672 303.177C116.875 302.375 115.172 301.276 113.771 299.974C112.375 298.677 111.172 296.974 110.271 295.276C109.375 293.573 108.672 291.677 108.375 289.776C108.073 287.875 108.073 285.875 108.375 283.974C108.672 282.073 109.375 280.177 110.271 278.474C111.172 276.776 112.375 275.073 113.771 273.776C115.172 272.474 116.875 271.276 118.672 270.474C120.375 269.677 122.375 269.177 124.271 268.974C126.172 268.776 128.172 268.875 130.073 269.276C131.974 269.677 133.875 270.474 135.474 271.474C137.073 272.474 138.672 273.776 139.875 275.177C141.073 276.677 142.172 278.375 142.875 280.177C143.573 281.974 144.073 283.974 144.172 285.875C144.271 287.776 144.073 289.875 143.573 291.677C143.073 293.573 142.172 295.375 141.073 296.974C139.974 298.573 138.573 299.974 137.073 301.177C135.573 302.375 133.771 303.375 131.974 303.974C130.172 304.573 128.271 304.974 126.172 304.875C123.573 304.776 120.271 304.177 117.771 302.875C115.271 301.573 112.771 299.073 111.271 297.276C110.271 295.974 109.672 295.073 109.172 293.474C108.474 291.276 107.974 287.177 108.073 284.875C108.172 283.177 108.375 282.177 109.073 280.677C109.974 278.474 112.172 275.177 113.875 273.474C115.073 272.276 115.974 271.677 117.474 270.974C119.573 269.974 125.771 268.875 125.771 268.875" fill="white"/>
</mask>
<g mask="url(#mask21_149_241)">
<path d="M104.073 264.875H148.172V308.875H104.073V264.875Z" fill="#009999"/>
</g>
</g>
<mask id="mask22_149_241" style="mask-type:luminance" maskUnits="userSpaceOnUse" x="76" y="292" width="13" height="14">
<path d="M76.6458 292.76H88.4999V305.042H76.6458V292.76Z" fill="white"/>
</mask>
<g mask="url(#mask22_149_241)">
<mask id="mask23_149_241" style="mask-type:luminance" maskUnits="userSpaceOnUse" x="76" y="292" width="13" height="13">
<path d="M88.4739 296.974C86.9739 303.375 86.0729 303.875 85.1719 304.276C84.375 304.677 83.375 304.974 82.375 304.776C80.9739 304.474 78.4739 303.276 77.5729 301.875C76.6719 300.474 76.875 297.677 77.2708 296.276C77.5729 295.276 78.2708 294.677 78.9739 294.073C79.6719 293.474 80.5729 292.974 81.6719 292.875C83.1719 292.776 86.9739 294.474 86.9739 294.474" fill="white"/>
</mask>
<g mask="url(#mask23_149_241)">
<path d="M73.2708 288.875H92.4739V308.776H73.2708V288.875Z" fill="#009999"/>
</g>
</g>
<mask id="mask24_149_241" style="mask-type:luminance" maskUnits="userSpaceOnUse" x="79" y="284" width="12" height="12">
<path d="M79 284.042H90.6042V296H79V284.042Z" fill="white"/>
</mask>
<g mask="url(#mask24_149_241)">
<mask id="mask25_149_241" style="mask-type:luminance" maskUnits="userSpaceOnUse" x="79" y="284" width="12" height="12">
<path d="M90.573 288.375C90.375 292.573 88.875 294.875 87.375 295.573C85.875 296.276 83.073 295.875 81.7709 295.276C80.875 294.875 80.1719 294.177 79.7709 293.177C79.1719 291.875 78.974 289.073 79.375 287.677C79.6719 286.677 80.474 285.974 81.1719 285.375C81.875 284.776 82.7709 284.276 83.7709 284.177C85.2709 284.073 89.1719 285.875 89.1719 285.875" fill="white"/>
</mask>
<g mask="url(#mask25_149_241)">
<path d="M75.375 280.177H94.7708V299.573H75.375V280.177Z" fill="#009999"/>
</g>
</g>
<path d="M34.6355 414.943L171.948 237.953" stroke="#009999" stroke-width="3.99735"/>
<path d="M36.9375 450.333L206.964 229.114" stroke="white" stroke-width="43.9692"/>
<mask id="mask26_149_241" style="mask-type:luminance" maskUnits="userSpaceOnUse" x="10" y="397" width="27" height="35">
<path d="M10.9583 397.526H36.2708V431.99H10.9583V397.526Z" fill="white"/>
</mask>
<g mask="url(#mask26_149_241)">
<mask id="mask27_149_241" style="mask-type:luminance" maskUnits="userSpaceOnUse" x="10" y="397" width="27" height="35">
<path d="M23.6145 431.99L36.2708 397.526H10.9583L23.6145 431.99Z" fill="white"/>
</mask>
<g mask="url(#mask27_149_241)">
<path d="M10.9583 397.526H36.2708V431.99H10.9583V397.526Z" fill="white"/>
</g>
</g>
<mask id="mask28_149_241" style="mask-type:luminance" maskUnits="userSpaceOnUse" x="23" y="232" width="130" height="200">
<path d="M23 232H152.333V432H23V232Z" fill="white"/>
</mask>
<g mask="url(#mask28_149_241)">
<mask id="mask29_149_241" style="mask-type:luminance" maskUnits="userSpaceOnUse" x="-1" y="232" width="153" height="214">
<path d="M103.672 232.599L151.771 259.594L47.703 445.036L-0.401123 418.042L103.672 232.599Z" fill="white"/>
</mask>
<g mask="url(#mask29_149_241)">
<mask id="mask30_149_241" style="mask-type:luminance" maskUnits="userSpaceOnUse" x="23" y="232" width="129" height="200">
<path d="M23.6509 431.536L151.771 259.594L103.672 232.599L23.6509 431.536Z" fill="white"/>
</mask>
<g mask="url(#mask30_149_241)">
<path d="M103.672 232.599L151.771 259.594L47.703 445.036L-0.401123 418.042L103.672 232.599Z" fill="#009999"/>
</g>
</g>
</g>
</g>
<defs>
<clipPath id="clip0_149_241">
<rect width="961" height="369" fill="white" transform="translate(474 73)"/>
</clipPath>
<clipPath id="clip1_149_241">
<rect width="474" height="515" fill="white"/>
</clipPath>
</defs>
</svg>
